# xmcd
#
# Track frame offsets:
# 150
# 15054
# 25578
# 37044
# 50679
# 60075
# 71416
# 84256
# 100664
# 111156
# 125036
# 142025
# 156060
# 167159
# 180179
# 193777
# 204288
# 218305
#
# Disc length: 3071 seconds
#
#
# Revision: 0
# Processed by: cddbd v1.5.1PL2 Copyright (c) Steve Scherf et al.
# Submitted via: FreeRIP 2.92 
#
DISCID=dc0bfd12
DTITLE=George Jones - Anthology
DYEAR=1900
DGENRE=
TTITLE0=He Stopped Loving Her Today
TTITLE1=Her Name Is..
TTITLE2=A Picture Of Me
TTITLE3=These Days
TTITLE4=We Can Make It
TTITLE5=The One I Loved Back Then
TTITLE6=Still Doin Time
TTITLE7=C.C. Waterback
TTITLE8=Maybellene
TTITLE9=Loving You Could Never Be Better
TTITLE10=Bartender's Blues
TTITLE11=The Grand Tour
TTITLE12=Shes My Rock
TTITLE13=Tennessee Wisky
TTITLE14=I'm Not Ready Yet
TTITLE15=Nothing Ever Hurt Me
TTITLE16=You've Still Got A Place In My Heart
TTITLE17=The Door
EXTD=
EXTT0=
EXTT1=
EXTT2=
EXTT3=
EXTT4=
EXTT5=
EXTT6=
EXTT7=
EXTT8=
EXTT9=
EXTT10=
EXTT11=
EXTT12=
EXTT13=
EXTT14=
EXTT15=
EXTT16=
EXTT17=
PLAYORDER=
